# Blender 4.3.2
# www.blender.org
mtllib bars4rtcg_1.mtl
o Cube
v 0.203777 4.010182 -0.171143
v 0.203777 -0.300000 -0.171143
v 0.219798 4.010182 0.165180
v 0.219798 -0.300000 0.165180
v -0.236772 4.010182 -0.147539
v -0.236772 -0.300000 -0.147539
v -0.230642 4.010182 0.161776
v -0.230642 -0.300000 0.161776
v -0.300000 -0.300000 0.000000
v 0.300000 4.010182 0.000000
v -0.300000 4.010182 0.000000
v 0.300000 -0.300000 0.000000
v 0.000000 -0.300000 -0.266153
v 0.000000 4.010182 0.275692
v 0.000000 -0.300000 0.275692
v 0.000000 4.010182 -0.266153
v 0.000000 -0.300000 0.000000
v 0.000000 4.010182 0.000000
vn -0.0000 1.0000 -0.0000
vn -0.4428 -0.0000 0.8966
vn -0.9192 -0.0000 -0.3939
vn -0.0000 -1.0000 -0.0000
vn 0.8996 -0.0000 0.4368
vn 0.4226 -0.0000 -0.9063
vn 0.8717 -0.0000 -0.4901
vn -0.9191 -0.0000 0.3940
vn -0.4479 -0.0000 -0.8941
vn 0.4492 -0.0000 0.8934
vt 0.750000 0.625000
vt 0.875000 0.625000
vt 0.875000 0.750000
vt 0.750000 0.750000
vt 0.375000 0.875000
vt 0.625000 0.875000
vt 0.625000 1.000000
vt 0.375000 1.000000
vt 0.375000 0.125000
vt 0.625000 0.125000
vt 0.625000 0.250000
vt 0.375000 0.250000
vt 0.250000 0.625000
vt 0.375000 0.625000
vt 0.375000 0.750000
vt 0.250000 0.750000
vt 0.625000 0.625000
vt 0.625000 0.750000
vt 0.375000 0.375000
vt 0.625000 0.375000
vt 0.625000 0.500000
vt 0.375000 0.500000
vt 0.250000 0.500000
vt 0.375000 0.000000
vt 0.625000 0.000000
vt 0.750000 0.500000
vt 0.875000 0.500000
vt 0.125000 0.500000
vt 0.125000 0.625000
vt 0.125000 0.750000
s 0
usemtl Material
f 18/1/1 11/2/1 7/3/1 14/4/1
f 15/5/2 14/6/2 7/7/2 8/8/2
f 9/9/3 11/10/3 5/11/3 6/12/3
f 17/13/4 12/14/4 4/15/4 15/16/4
f 12/14/5 10/17/5 3/18/5 4/15/5
f 13/19/6 16/20/6 1/21/6 2/22/6
f 2/22/7 1/21/7 10/17/7 12/14/7
f 13/23/4 2/22/4 12/14/4 17/13/4
f 8/24/8 7/25/8 11/10/8 9/9/8
f 16/26/1 5/27/1 11/2/1 18/1/1
f 1/21/1 16/26/1 18/1/1 10/17/1
f 6/28/4 13/23/4 17/13/4 9/29/4
f 6/12/9 5/11/9 16/20/9 13/19/9
f 9/29/4 17/13/4 15/16/4 8/30/4
f 4/15/10 3/18/10 14/6/10 15/5/10
f 10/17/1 18/1/1 14/4/1 3/18/1
