# Blender 4.3.2
# www.blender.org
mtllib gate4rtcg_1.mtl
o Cube
v -1.018814 -0.175293 0.255815
v -1.143160 0.172236 0.131470
v -1.018814 -0.175293 -0.255815
v -1.143160 0.172236 -0.131470
v -1.530444 -0.175293 0.255815
v -1.406099 0.172236 0.131470
v -1.530444 -0.175293 -0.255815
v -1.406099 0.172236 -0.131470
v -1.406099 0.502625 0.131470
v -1.406099 0.502625 -0.131470
v -1.143160 0.502625 0.131470
v -1.143160 0.502625 -0.131470
v -1.406099 0.830274 0.131470
v -1.406099 0.830274 -0.131470
v -1.143160 0.830274 0.131470
v -1.143160 0.830274 -0.131470
v -1.405936 1.121314 0.131470
v -1.405936 1.121314 -0.131470
v -1.143323 1.115977 0.131470
v -1.143323 1.115977 -0.131470
v -1.400239 1.423034 0.131470
v -1.400239 1.423034 -0.131470
v -1.139520 1.392775 0.131470
v -1.139520 1.392775 -0.131470
v -1.408259 1.750461 0.175293
v -1.408259 1.750461 -0.175293
v -1.064999 1.679168 0.175293
v -1.064999 1.679168 -0.175293
v -1.348487 2.035072 0.175293
v -1.348487 2.035072 -0.175293
v -1.012607 1.934598 0.175293
v -1.012607 1.934598 -0.175293
v -1.252846 2.353199 0.175293
v -1.252846 2.353199 -0.175293
v -0.925101 2.228726 0.175293
v -0.925101 2.228726 -0.175293
v -1.153581 2.676580 0.175293
v -1.153581 2.676580 -0.175293
v -0.843195 2.513574 0.175293
v -0.843195 2.513574 -0.175293
v -1.179106 2.893387 0.232312
v -1.179106 2.893387 -0.232312
v -0.804681 2.618284 0.232312
v -0.804681 2.618284 -0.232312
v -0.569973 3.490798 0.232312
v -0.569972 3.490798 -0.232312
v -0.299106 3.113297 0.232312
v -0.299106 3.113297 -0.232312
v 0.103638 3.961420 0.232312
v 0.103638 3.961420 -0.232312
v 0.103638 3.360143 0.232312
v 0.103638 3.360143 -0.232312
v -0.502497 3.106595 0.176487
v -0.591598 3.172060 0.176487
v -0.585196 3.175128 -0.176487
v -0.499204 3.111947 -0.176487
v -0.382187 3.224392 0.176487
v -0.446644 3.314225 0.176487
v -0.445300 3.312332 -0.176487
v -0.383092 3.225634 -0.176487
v -0.269060 3.316334 0.176487
v -0.256802 3.426218 0.176487
v -0.262082 3.420417 -0.176487
v -0.273913 3.314367 -0.176487
v 1.226090 -0.175293 0.255815
v 1.350436 0.172236 0.131470
v 1.226090 -0.175293 -0.255815
v 1.350436 0.172236 -0.131469
v 1.737720 -0.175293 0.255815
v 1.613375 0.172236 0.131470
v 1.737720 -0.175293 -0.255815
v 1.613375 0.172236 -0.131469
v 1.613375 0.502625 0.131470
v 1.613375 0.502625 -0.131469
v 1.350436 0.502625 0.131470
v 1.350436 0.502625 -0.131469
v 1.613375 0.830274 0.131470
v 1.613375 0.830274 -0.131469
v 1.350436 0.830274 0.131470
v 1.350436 0.830274 -0.131469
v 1.613212 1.121314 0.131470
v 1.613212 1.121314 -0.131469
v 1.350599 1.115977 0.131470
v 1.350599 1.115977 -0.131469
v 1.607515 1.423034 0.131470
v 1.607515 1.423034 -0.131469
v 1.346796 1.392775 0.131470
v 1.346796 1.392775 -0.131469
v 1.615534 1.750461 0.175293
v 1.615534 1.750461 -0.175292
v 1.272274 1.679168 0.175293
v 1.272274 1.679168 -0.175292
v 1.555763 2.035072 0.175293
v 1.555763 2.035072 -0.175292
v 1.219883 1.934598 0.175293
v 1.219883 1.934598 -0.175292
v 1.460122 2.353199 0.175293
v 1.460122 2.353199 -0.175292
v 1.132377 2.228726 0.175293
v 1.132377 2.228726 -0.175292
v 1.360857 2.676580 0.175293
v 1.360857 2.676580 -0.175292
v 1.050471 2.513574 0.175293
v 1.050471 2.513574 -0.175292
v 1.386382 2.893387 0.232313
v 1.386382 2.893387 -0.232312
v 1.011957 2.618284 0.232312
v 1.011957 2.618284 -0.232312
v 0.777248 3.490798 0.232312
v 0.777248 3.490798 -0.232312
v 0.506381 3.113297 0.232312
v 0.506382 3.113297 -0.232312
v 0.709773 3.106595 0.176488
v 0.798874 3.172060 0.176488
v 0.792472 3.175128 -0.176487
v 0.706480 3.111947 -0.176487
v 0.589463 3.224392 0.176488
v 0.653920 3.314225 0.176488
v 0.652576 3.312332 -0.176487
v 0.590368 3.225634 -0.176487
v 0.476336 3.316334 0.176488
v 0.464078 3.426218 0.176488
v 0.469358 3.420417 -0.176487
v 0.481188 3.314367 -0.176487
vn -0.0000 -1.0000 -0.0000
vn -0.0000 0.3369 -0.9415
vn -0.9415 0.3369 -0.0000
vn -0.0000 -0.0000 1.0000
vn 0.9415 0.3369 -0.0000
vn -0.0000 0.3369 0.9415
vn -0.0000 -0.0000 -1.0000
vn -1.0000 -0.0000 -0.0000
vn 1.0000 -0.0000 -0.0000
vn 1.0000 0.0006 -0.0000
vn -1.0000 0.0006 -0.0000
vn -0.0233 -0.1388 -0.9900
vn -0.9998 0.0189 -0.0000
vn 0.9999 -0.0137 -0.0000
vn -0.9997 -0.0245 -0.0000
vn 0.9678 -0.2518 -0.0000
vn -0.0233 -0.1388 0.9900
vn -0.9787 0.2055 -0.0000
vn 0.9796 -0.2009 -0.0000
vn -0.9577 0.2879 -0.0000
vn 0.9585 -0.2852 -0.0000
vn -0.2046 -0.3199 -0.9251
vn -0.9560 0.2934 -0.0000
vn 0.9611 -0.2763 -0.0000
vn 0.6996 -0.7145 -0.0000
vn -0.9931 -0.1169 -0.0000
vn 0.9385 -0.3452 -0.0000
vn -0.2046 -0.3199 0.9251
vn 0.0569 0.0774 -0.9954
vn -0.2607 0.2663 -0.9280
vn 0.1326 -0.1966 0.9715
vn -0.7002 0.7139 -0.0000
vn -0.5727 0.8197 -0.0000
vn 0.5226 -0.8526 -0.0000
vn 0.1762 -0.1797 -0.9678
vn -0.1879 0.2861 0.9396
vn -0.2632 0.2688 0.9266
vn 0.1317 -0.1949 -0.9719
vn -0.1526 0.0026 0.9883
vn 0.1780 -0.1815 0.9672
vn -0.1865 0.2844 -0.9404
vn 0.0575 0.0782 0.9953
vn -0.1505 0.0025 -0.9886
vn 0.0233 -0.1388 -0.9900
vn 0.9998 0.0189 -0.0000
vn -0.9999 -0.0137 -0.0000
vn 0.9997 -0.0245 -0.0000
vn -0.9678 -0.2518 -0.0000
vn 0.0233 -0.1388 0.9900
vn 0.9787 0.2055 -0.0000
vn -0.9796 -0.2009 -0.0000
vn 0.9577 0.2879 -0.0000
vn -0.9585 -0.2852 -0.0000
vn 0.2046 -0.3199 -0.9251
vn 0.9560 0.2934 -0.0000
vn -0.9611 -0.2763 -0.0000
vn -0.6996 -0.7145 -0.0000
vn 0.9931 -0.1169 -0.0000
vn -0.9385 -0.3452 -0.0000
vn 0.2046 -0.3199 0.9251
vn -0.0569 0.0774 -0.9954
vn 0.2607 0.2663 -0.9280
vn -0.1326 -0.1966 0.9715
vn 0.7002 0.7139 -0.0000
vn 0.5727 0.8197 -0.0000
vn -0.5226 -0.8526 -0.0000
vn -0.1762 -0.1797 -0.9678
vn 0.1879 0.2861 0.9396
vn 0.2632 0.2688 0.9266
vn -0.1317 -0.1949 -0.9719
vn 0.1526 0.0026 0.9883
vn -0.1780 -0.1815 0.9672
vn 0.1865 0.2844 -0.9404
vn -0.0575 0.0782 0.9953
vn 0.1505 0.0025 -0.9886
vt 0.625000 0.500000
vt 0.875000 0.500000
vt 0.875000 0.750000
vt 0.625000 0.750000
vt 0.375000 0.750000
vt 0.625000 1.000000
vt 0.375000 1.000000
vt 0.375000 0.000000
vt 0.625000 0.000000
vt 0.625000 0.250000
vt 0.375000 0.250000
vt 0.375000 0.500000
vt 0.125000 0.500000
vt 0.125000 0.750000
s 0
usemtl Material
f 1/1/1 5/2/1 7/3/1 3/4/1
f 4/5/2 3/4/2 7/6/2 8/7/2
f 8/8/3 7/9/3 5/10/3 6/11/3
f 6/11/4 2/12/4 11/12/4 9/11/4
f 2/12/5 1/1/5 3/4/5 4/5/5
f 6/11/6 5/10/6 1/1/6 2/12/6
f 12/5/7 10/7/7 14/7/7 16/5/7
f 4/5/7 8/7/7 10/7/7 12/5/7
f 8/8/8 6/11/8 9/11/8 10/8/8
f 2/12/9 4/5/9 12/5/9 11/12/9
f 15/12/10 16/5/10 20/5/10 19/12/10
f 10/8/8 9/11/8 13/11/8 14/8/8
f 11/12/9 12/5/9 16/5/9 15/12/9
f 9/11/4 11/12/4 15/12/4 13/11/4
f 17/11/4 19/12/4 23/12/4 21/11/4
f 13/11/4 15/12/4 19/12/4 17/11/4
f 16/5/7 14/7/7 18/7/7 20/5/7
f 14/8/11 13/11/11 17/11/11 18/8/11
f 24/5/12 22/7/12 26/7/12 28/5/12
f 20/5/7 18/7/7 22/7/7 24/5/7
f 18/8/13 17/11/13 21/11/13 22/8/13
f 19/12/14 20/5/14 24/5/14 23/12/14
f 25/11/4 27/12/4 31/12/4 29/11/4
f 22/8/15 21/11/15 25/11/15 26/8/15
f 23/12/16 24/5/16 28/5/16 27/12/16
f 21/11/17 23/12/17 27/12/17 25/11/17
f 32/5/7 30/7/7 34/7/7 36/5/7
f 28/5/7 26/7/7 30/7/7 32/5/7
f 26/8/18 25/11/18 29/11/18 30/8/18
f 27/12/19 28/5/19 32/5/19 31/12/19
f 36/5/7 34/7/7 38/7/7 40/5/7
f 30/8/20 29/11/20 33/11/20 34/8/20
f 31/12/21 32/5/21 36/5/21 35/12/21
f 29/11/4 31/12/4 35/12/4 33/11/4
f 40/5/22 38/7/22 42/7/22 44/5/22
f 34/8/23 33/11/23 37/11/23 38/8/23
f 35/12/24 36/5/24 40/5/24 39/12/24
f 33/11/4 35/12/4 39/12/4 37/11/4
f 43/12/25 44/5/25 48/5/25 47/12/25
f 38/8/26 37/11/26 41/11/26 42/8/26
f 39/12/27 40/5/27 44/5/27 43/12/27
f 37/11/28 39/12/28 43/12/28 41/11/28
f 44/5/29 42/7/29 55/7/29 56/5/29
f 48/5/30 44/5/30 56/5/30 60/5/30
f 49/11/31 45/11/31 58/11/31 62/11/31
f 42/8/32 41/11/32 45/11/32 46/8/32
f 46/8/33 45/11/33 49/11/33 50/8/33
f 47/12/34 48/5/34 52/5/34 51/12/34
f 42/8/35 46/8/35 59/8/35 55/8/35
f 60/5/7 59/7/7 63/7/7 64/5/7
f 54/11/4 53/12/4 57/12/4 58/11/4
f 56/5/7 55/7/7 59/7/7 60/5/7
f 58/11/4 57/12/4 61/12/4 62/11/4
f 47/12/36 51/12/36 61/12/36 57/12/36
f 43/12/37 47/12/37 57/12/37 53/12/37
f 46/8/38 50/8/38 63/8/38 59/8/38
f 51/12/39 49/13/39 62/13/39 61/12/39
f 45/11/40 41/11/40 54/11/40 58/11/40
f 52/5/41 48/5/41 60/5/41 64/5/41
f 41/11/42 43/12/42 53/12/42 54/11/42
f 50/14/43 52/5/43 64/5/43 63/14/43
f 65/1/1 67/4/1 71/3/1 69/2/1
f 68/5/2 72/7/2 71/6/2 67/4/2
f 72/8/5 70/11/5 69/10/5 71/9/5
f 70/11/4 73/11/4 75/12/4 66/12/4
f 66/12/3 68/5/3 67/4/3 65/1/3
f 70/11/6 66/12/6 65/1/6 69/10/6
f 76/5/7 80/5/7 78/7/7 74/7/7
f 68/5/7 76/5/7 74/7/7 72/7/7
f 72/8/9 74/8/9 73/11/9 70/11/9
f 66/12/8 75/12/8 76/5/8 68/5/8
f 79/12/11 83/12/11 84/5/11 80/5/11
f 74/8/9 78/8/9 77/11/9 73/11/9
f 75/12/8 79/12/8 80/5/8 76/5/8
f 73/11/4 77/11/4 79/12/4 75/12/4
f 81/11/4 85/11/4 87/12/4 83/12/4
f 77/11/4 81/11/4 83/12/4 79/12/4
f 80/5/7 84/5/7 82/7/7 78/7/7
f 78/8/10 82/8/10 81/11/10 77/11/10
f 88/5/44 92/5/44 90/7/44 86/7/44
f 84/5/7 88/5/7 86/7/7 82/7/7
f 82/8/45 86/8/45 85/11/45 81/11/45
f 83/12/46 87/12/46 88/5/46 84/5/46
f 89/11/4 93/11/4 95/12/4 91/12/4
f 86/8/47 90/8/47 89/11/47 85/11/47
f 87/12/48 91/12/48 92/5/48 88/5/48
f 85/11/49 89/11/49 91/12/49 87/12/49
f 96/5/7 100/5/7 98/7/7 94/7/7
f 92/5/7 96/5/7 94/7/7 90/7/7
f 90/8/50 94/8/50 93/11/50 89/11/50
f 91/12/51 95/12/51 96/5/51 92/5/51
f 100/5/7 104/5/7 102/7/7 98/7/7
f 94/8/52 98/8/52 97/11/52 93/11/52
f 95/12/53 99/12/53 100/5/53 96/5/53
f 93/11/4 97/11/4 99/12/4 95/12/4
f 104/5/54 108/5/54 106/7/54 102/7/54
f 98/8/55 102/8/55 101/11/55 97/11/55
f 99/12/56 103/12/56 104/5/56 100/5/56
f 97/11/4 101/11/4 103/12/4 99/12/4
f 107/12/57 111/12/57 112/5/57 108/5/57
f 102/8/58 106/8/58 105/11/58 101/11/58
f 103/12/59 107/12/59 108/5/59 104/5/59
f 101/11/60 105/11/60 107/12/60 103/12/60
f 108/5/61 116/5/61 115/7/61 106/7/61
f 112/5/62 120/5/62 116/5/62 108/5/62
f 49/11/63 122/11/63 118/11/63 109/11/63
f 106/8/64 110/8/64 109/11/64 105/11/64
f 110/8/65 50/8/65 49/11/65 109/11/65
f 111/12/66 51/12/66 52/5/66 112/5/66
f 106/8/67 115/8/67 119/8/67 110/8/67
f 120/5/7 124/5/7 123/7/7 119/7/7
f 114/11/4 118/11/4 117/12/4 113/12/4
f 116/5/7 120/5/7 119/7/7 115/7/7
f 118/11/4 122/11/4 121/12/4 117/12/4
f 111/12/68 117/12/68 121/12/68 51/12/68
f 107/12/69 113/12/69 117/12/69 111/12/69
f 110/8/70 119/8/70 123/8/70 50/8/70
f 51/12/71 121/12/71 122/13/71 49/13/71
f 109/11/72 118/11/72 114/11/72 105/11/72
f 52/5/73 124/5/73 120/5/73 112/5/73
f 105/11/74 114/11/74 113/12/74 107/12/74
f 50/14/75 123/14/75 124/5/75 52/5/75
