# Blender 4.3.2
# www.blender.org
mtllib lpsphere.mtl
o Cube
v -0.213553 0.248320 -0.104575
v -0.204212 -0.213471 -0.095925
v -0.213553 0.248320 0.268254
v -0.204212 -0.213471 0.259604
v 0.189052 0.248320 -0.104575
v 0.179711 -0.213471 -0.095925
v 0.189052 0.248320 0.268254
v 0.179711 -0.213471 0.259604
v 0.004882 0.248320 0.310375
v 0.004882 -0.213471 0.272532
v 0.004882 0.248320 -0.146695
v 0.004882 -0.213471 -0.184538
v -0.259037 0.248320 0.061015
v -0.259037 -0.213471 0.061016
v 0.234537 0.248320 0.061015
v 0.234537 -0.213471 0.061016
v 0.004882 -0.302705 0.082587
v 0.004882 0.337555 0.082587
v -0.259037 0.027223 -0.146695
v -0.259037 0.027223 0.310375
v 0.234537 0.027223 0.310375
v 0.234537 0.027223 -0.146695
v 0.009521 0.027223 -0.302652
v 0.009521 0.027223 0.401922
v 0.314390 0.027223 0.055377
v -0.348168 0.027223 0.055377
vn -0.9095 -0.2991 0.2887
vn 0.2353 -0.3660 0.9004
vn 0.8960 -0.2901 -0.3361
vn -0.4288 -0.3385 -0.8375
vn 0.2160 0.9467 -0.2388
vn -0.2115 -0.9506 -0.2274
vn 0.2458 -0.9416 -0.2299
vn -0.1865 0.9535 -0.2369
vn 0.4904 -0.3418 -0.8017
vn -0.1992 -0.3616 0.9108
vn -0.2052 0.9543 0.2172
vn 0.2288 -0.9412 0.2485
vn -0.1970 -0.9491 0.2458
vn 0.2378 0.9463 0.2190
vn 0.9195 -0.2828 0.2730
vn -0.8837 -0.3058 -0.3543
vn -0.8936 0.3074 -0.3272
vn 0.9257 0.2831 0.2510
vn -0.2524 0.3013 0.9195
vn 0.3970 0.4123 -0.8200
vn -0.3436 0.4102 -0.8448
vn 0.9058 0.2901 -0.3088
vn 0.2955 0.3070 0.9047
vn -0.9157 0.3008 0.2667
vt 0.494696 0.113610
vt 0.625000 0.113610
vt 0.625000 0.250000
vt 0.494696 0.250000
vt 0.494696 0.383678
vt 0.625000 0.383678
vt 0.625000 0.500000
vt 0.494696 0.500000
vt 0.494696 0.636390
vt 0.625000 0.636390
vt 0.625000 0.750000
vt 0.494696 0.750000
vt 0.494696 0.866322
vt 0.625000 0.866322
vt 0.625000 1.000000
vt 0.494696 1.000000
vt 0.258678 0.636390
vt 0.375000 0.636390
vt 0.375000 0.750000
vt 0.258678 0.750000
vt 0.741322 0.636390
vt 0.875000 0.636390
vt 0.875000 0.750000
vt 0.741322 0.750000
vt 0.125000 0.636390
vt 0.125000 0.750000
vt 0.125000 0.500000
vt 0.258678 0.500000
vt 0.741322 0.500000
vt 0.875000 0.500000
vt 0.375000 0.500000
vt 0.494696 0.000000
vt 0.625000 0.000000
vt 0.375000 0.000000
vt 0.375000 0.113610
vt 0.375000 0.250000
vt 0.375000 0.383678
vt 0.375000 0.866322
vt 0.375000 1.000000
s 0
f 26/1/1 14/2/1 4/3/1 20/4/1
f 24/5/2 10/6/2 8/7/2 21/8/2
f 25/9/3 16/10/3 6/11/3 22/12/3
f 23/13/4 12/14/4 2/15/4 19/16/4
f 18/17/5 15/18/5 5/19/5 11/20/5
f 17/21/6 14/22/6 2/23/6 12/24/6
f 16/10/7 17/21/7 12/24/7 6/11/7
f 13/25/8 18/17/8 11/20/8 1/26/8
f 22/12/9 6/11/9 12/14/9 23/13/9
f 20/4/10 4/3/10 10/6/10 24/5/10
f 3/27/11 9/28/11 18/17/11 13/25/11
f 8/7/12 10/29/12 17/21/12 16/10/12
f 10/29/13 4/30/13 14/22/13 17/21/13
f 9/28/14 7/31/14 15/18/14 18/17/14
f 21/8/15 8/7/15 16/10/15 25/9/15
f 19/32/16 2/33/16 14/2/16 26/1/16
f 1/34/17 19/32/17 26/1/17 13/35/17
f 7/31/18 21/8/18 25/9/18 15/18/18
f 3/36/19 20/4/19 24/5/19 9/37/19
f 5/19/20 22/12/20 23/13/20 11/38/20
f 11/38/21 23/13/21 19/16/21 1/39/21
f 15/18/22 25/9/22 22/12/22 5/19/22
f 9/37/23 24/5/23 21/8/23 7/31/23
f 13/35/24 26/1/24 20/4/24 3/36/24
