# Blender 4.3.2
# www.blender.org
mtllib portal4rtcg_1.mtl
o Cube
v -0.106485 0.160219 -0.043526
v -0.042251 -0.088687 -0.060369
v -0.209043 0.143635 0.052813
v -0.054197 -0.088594 0.131353
v 0.040293 0.122670 -0.065946
v 0.025132 -0.081749 -0.151087
v -0.032638 0.155389 0.096052
v 0.128791 -0.111548 0.046169
v -0.125216 0.188307 0.105092
v -0.001367 -0.130451 0.117187
v -0.021300 0.177165 0.007250
v -0.068560 -0.090735 -0.165242
v -0.191645 0.234512 -0.035405
v -0.081073 -0.167917 -0.024514
v 0.058606 0.114014 0.024532
v 0.058177 -0.152564 -0.069358
v -0.054062 -0.196175 -0.058816
v -0.116762 0.249704 0.035671
v -0.156416 0.010605 -0.074460
v -0.086138 0.006368 0.094642
v 0.079802 0.006368 0.094642
v 0.079802 0.006368 -0.059026
v -0.000428 0.009380 -0.090327
v 0.000628 0.051802 0.129149
v 0.106649 0.006368 0.008911
v -0.156358 -0.053604 0.112925
v -0.036382 -0.269773 -0.101494
v -0.033399 -0.236459 -0.183545
v -0.084162 -0.210258 -0.115120
v -0.085269 -0.235550 -0.014780
v -0.072425 -0.301366 -0.080902
v -0.091904 -0.276061 -0.147459
v -0.135315 -0.237950 -0.091776
v -0.115231 -0.282699 0.055056
v -0.167487 0.288652 -0.078304
v -0.076019 0.262762 -0.118752
v 0.008780 0.274346 -0.088041
v -0.052876 0.341257 -0.069251
v -0.090269 0.302896 0.032794
v -0.014937 0.237327 0.054889
v -0.010823 0.381899 -0.031844
v 0.018819 0.296433 0.016469
v -0.094387 0.369097 0.013846
v -0.031761 0.279599 0.092790
v -0.036028 0.426413 0.018643
v -0.029603 0.388329 0.071875
v -0.109373 0.415897 -0.021532
v -0.145033 0.410111 0.019216
v -0.092348 0.441492 -0.007097
v -0.067179 0.480177 0.057979
v -0.227156 -0.028718 -0.105174
v -0.181418 -0.058030 -0.121659
v -0.184891 -0.131237 -0.055493
v -0.258796 -0.053765 -0.027289
v -0.122649 0.105330 -0.153596
v -0.253533 0.078729 0.081475
v -0.229547 0.088125 -0.154010
v -0.302307 0.020260 0.009968
v -0.104480 0.175588 -0.164207
v -0.271489 0.152114 -0.006965
v -0.248511 0.187126 -0.157179
v -0.319513 0.127207 -0.016918
v -0.178250 0.280843 -0.140405
v -0.238731 0.281731 -0.075644
v -0.220151 0.257838 -0.150632
v -0.266466 0.247728 -0.087833
v -0.254748 0.327579 -0.143957
v -0.276434 0.327551 -0.111561
v -0.233626 0.298370 -0.156567
v -0.280321 0.290954 -0.090160
v -0.176899 0.326135 -0.106581
v -0.146048 0.325967 -0.193795
v -0.041149 0.333705 -0.139423
v -0.083462 0.381984 -0.087840
v -0.150361 0.421432 -0.098377
v -0.165248 0.433521 -0.152035
v -0.062764 0.360958 -0.189780
v -0.082886 0.408122 -0.105438
v -0.108374 0.486543 -0.098180
v -0.142766 0.476782 -0.134065
v -0.083753 0.380421 -0.169149
v -0.100029 0.443157 -0.125844
v -0.105364 0.488977 -0.029354
v -0.174978 0.472413 0.029240
v -0.085645 0.488694 -0.029147
v -0.096440 0.490983 0.030848
v -0.109613 0.512743 -0.031810
v -0.111447 0.517616 0.007818
v -0.105146 0.528062 -0.043503
v -0.090785 0.515382 -0.004377
vn -0.3250 -0.5402 0.7763
vn 0.4360 -0.1115 0.8930
vn 0.9074 -0.0969 -0.4090
vn -0.6790 0.0662 -0.7311
vn 0.6222 0.7827 -0.0168
vn -0.9937 0.1088 -0.0287
vn -0.3480 0.0337 -0.9369
vn -0.4659 0.7530 0.4647
vn 0.1871 0.5807 -0.7923
vn -0.1456 0.0724 0.9867
vn -0.6153 0.6150 0.4932
vn 0.3095 -0.9277 0.2088
vn -0.4222 -0.7891 0.4461
vn 0.4981 0.7369 0.4570
vn 0.9666 0.1081 -0.2322
vn -0.8567 -0.2339 -0.4597
vn -0.9157 -0.0752 -0.3947
vn 0.7671 0.4493 0.4579
vn -0.3911 -0.1363 0.9102
vn -0.1723 0.2660 -0.9484
vn 0.1101 0.3643 -0.9247
vn 0.9016 0.3617 -0.2373
vn 0.3899 0.3915 0.8335
vn -0.8047 -0.0343 0.5926
vn 0.4042 -0.8347 -0.3741
vn -0.8320 0.4430 0.3340
vn 0.5002 -0.3413 0.7958
vn 0.8377 -0.3780 -0.3941
vn -0.6973 -0.7093 -0.1036
vn 0.8728 -0.2505 0.4189
vn -0.6151 0.4049 -0.6766
vn -0.4626 0.8430 0.2744
vn 0.7582 0.6496 0.0568
vn -0.4572 -0.4282 -0.7795
vn 0.4118 -0.6607 -0.6276
vn -0.7945 0.6039 -0.0641
vn 0.8316 0.0183 0.5551
vn 0.7967 0.3875 -0.4637
vn 0.9436 -0.3230 0.0729
vn -0.2123 -0.3051 0.9284
vn 0.4924 -0.2546 -0.8323
vn 0.9129 0.3828 0.1416
vn -0.4901 0.1163 -0.8639
vn -0.7399 -0.2518 0.6238
vn 0.9587 0.2187 -0.1818
vn -0.5996 -0.6865 -0.4114
vn -0.3997 0.0878 0.9124
vn 0.7719 0.6003 -0.2092
vn -0.6678 -0.5291 -0.5236
vn 0.3444 0.4436 -0.8274
vn 0.1449 -0.5778 -0.8032
vn -0.4922 -0.7558 0.4318
vn -0.0244 -0.0812 -0.9964
vn 0.8448 0.4058 0.3488
vn 0.3063 -0.5255 -0.7937
vn -0.6553 -0.4636 0.5964
vn -0.5933 0.5378 0.5990
vn 0.7035 0.4028 0.5856
vn -0.7412 0.2531 0.6217
vn -0.8432 -0.2197 -0.4907
vn -0.7534 -0.3034 -0.5835
vn -0.8750 0.2289 -0.4266
vn 0.0064 0.1715 -0.9852
vn 0.6633 0.2506 0.7052
vn -0.7796 -0.2791 -0.5606
vn 0.3449 0.2575 -0.9026
vn 0.4871 0.7737 0.4051
vn -0.2712 0.2430 0.9314
vn -0.0979 0.0985 0.9903
vn -0.5284 -0.7743 -0.3483
vn -0.3089 0.3677 0.8772
vn 0.4052 -0.4337 -0.8049
vn 0.7924 0.5554 -0.2523
vn 0.0663 -0.0435 -0.9968
vn 0.8851 0.4575 0.0854
vn -0.9923 0.0623 -0.1072
vn 0.5521 0.5482 -0.6282
vn -0.7986 0.3997 0.4499
vn 0.4559 0.0660 0.8876
vn 0.1585 0.5148 -0.8426
vn -0.2296 -0.3302 -0.9156
vn 0.5022 -0.2503 -0.8277
vn -0.6685 -0.1161 -0.7346
vn -0.2587 0.0165 0.9658
vn -0.3436 0.9276 0.1466
vn -0.7399 0.4689 -0.4824
vn -0.0249 0.6458 0.7631
vn 0.9793 0.2017 -0.0141
vt 0.494696 0.113610
vt 0.625000 0.113610
vt 0.625000 0.250000
vt 0.494696 0.250000
vt 0.494696 0.383678
vt 0.625000 0.383678
vt 0.625000 0.500000
vt 0.494696 0.500000
vt 0.494696 0.636390
vt 0.625000 0.636390
vt 0.625000 0.750000
vt 0.494696 0.750000
vt 0.494696 0.866322
vt 0.625000 0.866322
vt 0.625000 1.000000
vt 0.494696 1.000000
vt 0.258678 0.636390
vt 0.375000 0.636390
vt 0.375000 0.750000
vt 0.258678 0.750000
vt 0.741322 0.636390
vt 0.875000 0.636390
vt 0.875000 0.750000
vt 0.741322 0.750000
vt 0.125000 0.636390
vt 0.125000 0.500000
vt 0.258678 0.500000
vt 0.741322 0.500000
vt 0.875000 0.500000
vt 0.375000 0.500000
vt 0.494696 0.000000
vt 0.375000 0.000000
vt 0.375000 0.113610
vt 0.375000 0.250000
vt 0.375000 0.383678
vt 0.375000 0.866322
vt 0.375000 1.000000
vt 0.625000 0.636390
vt 0.625000 0.000000
vt 0.494696 0.063590
vt 0.125000 0.750000
s 0
f 26/1/1 14/2/1 4/3/1 20/4/1
f 24/5/2 10/6/2 8/7/2 21/8/2
f 25/9/3 16/10/3 6/11/3 22/12/3
f 23/13/4 12/14/4 2/15/4 19/16/4
f 18/17/5 15/18/5 5/19/5 11/20/5
f 17/21/6 14/22/6 2/23/6 12/24/6
f 12/14/7 6/11/7 28/11/7 29/14/7
f 13/25/8 18/17/8 38/17/8 35/25/8
f 22/12/9 6/11/9 12/14/9 23/13/9
f 20/4/10 4/3/10 10/6/10 24/5/10
f 3/26/11 9/27/11 18/17/11 13/25/11
f 8/7/12 10/28/12 17/21/12 16/10/12
f 10/28/13 4/29/13 14/22/13 17/21/13
f 9/27/14 7/30/14 15/18/14 18/17/14
f 21/8/15 8/7/15 16/10/15 25/9/15
f 51/31/16 54/1/16 58/1/16 57/31/16
f 1/32/17 19/31/17 26/1/17 13/33/17
f 7/30/18 21/8/18 25/9/18 15/18/18
f 3/34/19 20/4/19 24/5/19 9/35/19
f 5/19/20 22/12/20 23/13/20 11/36/20
f 11/36/21 23/13/21 19/16/21 1/37/21
f 15/18/22 25/9/22 22/12/22 5/19/22
f 9/35/23 24/5/23 21/8/23 7/30/23
f 13/33/24 26/1/24 20/4/24 3/34/24
f 28/11/25 27/10/25 31/38/25 32/11/25
f 17/21/26 12/24/26 29/24/26 30/21/26
f 16/10/27 17/21/27 30/21/27 27/10/27
f 6/11/28 16/10/28 27/10/28 28/11/28
f 31/38/29 34/21/29 33/24/29 32/11/29
f 27/10/30 30/21/30 34/21/30 31/38/30
f 29/14/31 28/11/31 32/11/31 33/14/31
f 30/21/32 29/24/32 33/24/32 34/21/32
f 38/17/33 37/20/33 73/20/33 74/17/33
f 1/32/34 13/33/34 35/33/34 36/32/34
f 11/36/35 1/37/35 36/37/35 37/36/35
f 38/17/36 18/17/36 39/17/36 41/17/36
f 40/36/37 42/36/37 46/36/37 44/36/37
f 37/20/38 38/17/38 41/17/38 42/20/38
f 11/36/39 37/36/39 42/36/39 40/36/39
f 18/17/40 11/20/40 40/20/40 39/17/40
f 45/17/41 43/17/41 47/17/41 49/17/41
f 42/20/42 41/17/42 45/17/42 46/20/42
f 41/17/43 39/17/43 43/17/43 45/17/43
f 39/17/44 40/20/44 44/20/44 43/17/44
f 50/20/45 49/17/45 85/17/45 86/20/45
f 43/17/46 44/20/46 48/20/46 47/17/46
f 44/36/47 46/36/47 50/36/47 48/36/47
f 46/20/48 45/17/48 49/17/48 50/20/48
f 51/31/49 52/39/49 53/2/49 54/1/49
f 19/16/50 2/15/50 52/15/50 51/16/50
f 2/23/51 14/22/51 53/22/51 52/23/51
f 14/2/52 26/1/52 54/1/52 53/2/52
f 55/16/53 57/16/53 61/16/53 59/16/53
f 26/1/54 19/31/54 55/31/54 56/1/54
f 19/16/55 51/16/55 57/16/55 55/16/55
f 54/1/56 26/1/56 56/1/56 58/1/56
f 62/1/57 60/1/57 64/1/57 66/40/57
f 56/1/58 55/31/58 59/31/58 60/1/58
f 58/1/59 56/1/59 60/1/59 62/1/59
f 57/31/60 58/1/60 62/1/60 61/31/60
f 65/31/61 66/40/61 70/40/61 69/31/61
f 61/31/62 62/1/62 66/40/62 65/31/62
f 59/16/63 61/16/63 65/16/63 63/16/63
f 60/1/64 59/31/64 63/31/64 64/1/64
f 68/1/65 67/31/65 69/31/65 70/40/65
f 63/16/66 65/16/66 69/16/66 67/16/66
f 64/1/67 63/31/67 67/31/67 68/1/67
f 66/40/68 64/1/68 68/1/68 70/40/68
f 71/25/69 74/17/69 78/17/69 75/25/69
f 36/32/70 35/33/70 71/33/70 72/32/70
f 35/25/71 38/17/71 74/17/71 71/25/71
f 37/36/72 36/37/72 72/37/72 73/36/72
f 78/17/73 77/20/73 81/20/73 82/17/73
f 73/36/74 72/37/74 76/37/74 77/36/74
f 74/17/75 73/20/75 77/20/75 78/17/75
f 72/32/76 71/33/76 75/33/76 76/32/76
f 79/25/77 82/17/77 81/20/77 80/41/77
f 76/32/78 75/33/78 79/33/78 80/32/78
f 75/25/79 78/17/79 82/17/79 79/25/79
f 77/36/80 76/37/80 80/37/80 81/36/80
f 85/17/81 83/17/81 87/17/81 89/17/81
f 49/17/82 47/17/82 83/17/82 85/17/82
f 47/17/83 48/20/83 84/20/83 83/17/83
f 48/36/84 50/36/84 86/36/84 84/36/84
f 87/17/85 88/20/85 90/20/85 89/17/85
f 83/17/86 84/20/86 88/20/86 87/17/86
f 84/36/87 86/36/87 90/36/87 88/36/87
f 86/20/88 85/17/88 89/17/88 90/20/88
