# Blender 4.3.2
# www.blender.org
mtllib star4rtcg_1.mtl
o Cube
v 0.210886 0.002609 0.000000
v 0.149633 0.016467 0.314086
v 0.091842 0.280571 0.672111
v 0.091842 -0.422772 0.469589
v -0.240527 0.002609 0.000000
v -0.169759 0.016467 0.314086
v -0.111968 0.280571 0.672111
v -0.111968 -0.422772 0.469589
v -0.240527 -0.219892 0.000000
v 0.129836 0.766801 0.000000
v -0.159477 0.758758 0.000000
v 0.210886 -0.219892 0.000000
v -0.169759 -0.301356 0.222580
v -0.226851 0.074466 0.147132
v 0.149633 0.358225 0.229358
v 0.149633 0.074466 0.147132
v -0.169759 0.358225 0.241407
v 0.149633 -0.320005 0.222580
v -0.226851 0.038537 0.073566
v -0.188501 0.561734 0.114732
v 0.172284 -0.269948 0.111290
v -0.201924 -0.260624 0.111290
v 0.158860 0.557902 0.114679
v 0.197210 0.038537 0.073566
v -0.010063 0.289578 0.739641
v -0.012114 -0.506837 0.532541
v -0.010063 0.016467 0.383669
v -0.014820 -0.311349 0.000000
v -0.014820 0.868435 0.000000
v -0.010063 -0.392640 0.222580
v -0.010063 0.411103 0.241407
v -0.014820 0.622682 0.114732
v -0.014820 -0.352081 0.111290
v 0.149633 0.016467 -0.314086
v 0.091842 0.280571 -0.672111
v 0.091842 -0.422772 -0.469589
v -0.169759 0.016467 -0.314086
v -0.111968 0.280571 -0.672111
v -0.111968 -0.422772 -0.469589
v -0.169759 -0.301356 -0.222580
v -0.226851 0.074466 -0.147132
v 0.149633 0.358225 -0.229358
v 0.149633 0.074466 -0.147132
v -0.169759 0.358225 -0.241407
v 0.149633 -0.320005 -0.222580
v -0.226851 0.038537 -0.073566
v -0.188501 0.561734 -0.114732
v 0.172284 -0.269948 -0.111290
v -0.201924 -0.260624 -0.111290
v 0.158860 0.557902 -0.114679
v 0.197210 0.038537 -0.073566
v -0.010063 0.289578 -0.739641
v -0.012114 -0.506837 -0.532541
v -0.010063 0.016467 -0.383669
v -0.010063 -0.392640 -0.222580
v -0.010063 0.411103 -0.241407
v -0.014820 0.622682 -0.114732
v -0.014820 -0.352081 -0.111290
vn -0.2776 0.9357 0.2179
vn -0.2838 -0.7550 0.5911
vn 0.4386 -0.8523 -0.2849
vn 0.9947 0.0247 0.0998
vn 0.9915 -0.0340 0.1252
vn -0.9621 -0.0263 0.2714
vn -0.9957 0.0930 -0.0016
vn -0.3709 0.2604 0.8914
vn -0.9793 0.0421 0.1978
vn -0.9686 -0.0688 0.2390
vn 0.9339 0.0243 0.3567
vn 0.9571 0.0012 0.2898
vn 0.3860 -0.8648 -0.3211
vn -0.1728 0.5060 0.8451
vn -0.2458 0.4587 0.8539
vn 0.3704 -0.8808 -0.2950
vn 0.9957 0.0925 0.0038
vn 0.9625 -0.0260 0.2702
vn -0.9822 0.0883 0.1659
vn -0.9815 -0.0910 0.1684
vn -0.3917 -0.8839 -0.2556
vn 0.2353 0.4498 0.8616
vn 0.2049 0.4937 0.8451
vn -0.4527 -0.8591 -0.2387
vn 0.3663 0.2598 0.8935
vn -0.4831 -0.8227 -0.2997
vn 0.2838 -0.7550 0.5911
vn 0.2863 0.9336 0.2152
vn -0.2776 0.9357 -0.2179
vn -0.2838 -0.7550 -0.5911
vn 0.4386 -0.8523 0.2849
vn 0.9947 0.0247 -0.0998
vn 0.9915 -0.0340 -0.1252
vn -0.9621 -0.0263 -0.2714
vn -0.9957 0.0930 0.0016
vn -0.3709 0.2604 -0.8914
vn -0.9793 0.0421 -0.1978
vn -0.9686 -0.0688 -0.2390
vn 0.9339 0.0243 -0.3567
vn 0.9571 0.0012 -0.2898
vn 0.3860 -0.8648 0.3211
vn -0.1728 0.5060 -0.8451
vn -0.2458 0.4587 -0.8539
vn 0.3704 -0.8808 0.2950
vn 0.9957 0.0925 -0.0038
vn 0.9625 -0.0260 -0.2702
vn -0.9822 0.0883 -0.1659
vn -0.9815 -0.0910 -0.1684
vn -0.3917 -0.8839 0.2556
vn 0.2353 0.4498 -0.8616
vn 0.2049 0.4937 -0.8451
vn -0.4527 -0.8591 0.2387
vn 0.3663 0.2598 -0.8935
vn -0.4831 -0.8227 0.2997
vn 0.2838 -0.7550 -0.5911
vn 0.2863 0.9336 -0.2152
vt 0.230946 0.568296
vt 0.148998 0.516183
vt 0.246187 0.424230
vt 0.257223 0.426074
vt 0.274074 0.339413
vt 0.201584 0.322285
vt 0.309150 0.174889
vt 0.367994 0.203198
vt 0.309946 0.228718
vt 0.299019 0.225700
vt 0.435342 0.400488
vt 0.327916 0.553996
vt 0.268098 0.428380
vt 0.346174 0.352212
vt 0.180770 0.131542
vt 0.053152 0.299938
vt 0.000075 0.256811
vt 0.090074 0.070905
vt 0.078888 0.654748
vt 0.000075 0.848420
vt 0.287876 0.224129
vt 0.095799 0.330175
vt 0.236831 0.177600
vt 0.434848 0.184609
vt 0.494571 0.390585
vt 0.334151 0.704091
vt 0.319955 0.114059
vt 0.194095 0.737740
vt 0.141939 0.999925
vt 0.344019 0.000075
vt 0.542220 0.169248
vt 0.558857 0.371257
vt 0.328269 0.922304
s 0
usemtl Material
f 31/1/1 17/2/1 7/3/1 25/4/1
f 27/5/2 25/4/2 7/3/2 6/6/2
f 30/7/3 18/8/3 4/9/3 26/10/3
f 16/11/4 15/12/4 3/13/4 2/14/4
f 18/8/5 16/11/5 2/14/5 4/9/5
f 22/15/6 19/16/6 5/17/6 9/18/6
f 19/16/7 20/19/7 11/20/7 5/17/7
f 26/10/8 27/5/8 6/6/8 8/21/8
f 6/6/9 7/3/9 17/2/9 14/22/9
f 8/21/10 6/6/10 14/22/10 13/23/10
f 21/24/11 24/25/11 16/11/11 18/8/11
f 24/25/12 23/26/12 15/12/12 16/11/12
f 33/27/13 21/24/13 18/8/13 30/7/13
f 32/28/14 20/19/14 17/2/14 31/1/14
f 29/29/15 11/20/15 20/19/15 32/28/15
f 28/30/16 12/31/16 21/24/16 33/27/16
f 1/32/17 10/33/17 23/26/17 24/25/17
f 12/31/18 1/32/18 24/25/18 21/24/18
f 14/22/19 17/2/19 20/19/19 19/16/19
f 13/23/20 14/22/20 19/16/20 22/15/20
f 9/18/21 28/30/21 33/27/21 22/15/21
f 10/33/22 29/29/22 32/28/22 23/26/22
f 23/26/23 32/28/23 31/1/23 15/12/23
f 22/15/24 33/27/24 30/7/24 13/23/24
f 4/9/25 2/14/25 27/5/25 26/10/25
f 13/23/26 30/7/26 26/10/26 8/21/26
f 2/14/27 3/13/27 25/4/27 27/5/27
f 15/12/28 31/1/28 25/4/28 3/13/28
f 56/1/29 52/4/29 38/3/29 44/2/29
f 54/5/30 37/6/30 38/3/30 52/4/30
f 55/7/31 53/10/31 36/9/31 45/8/31
f 43/11/32 34/14/32 35/13/32 42/12/32
f 45/8/33 36/9/33 34/14/33 43/11/33
f 49/15/34 9/18/34 5/17/34 46/16/34
f 46/16/35 5/17/35 11/20/35 47/19/35
f 53/10/36 39/21/36 37/6/36 54/5/36
f 37/6/37 41/22/37 44/2/37 38/3/37
f 39/21/38 40/23/38 41/22/38 37/6/38
f 48/24/39 45/8/39 43/11/39 51/25/39
f 51/25/40 43/11/40 42/12/40 50/26/40
f 58/27/41 55/7/41 45/8/41 48/24/41
f 57/28/42 56/1/42 44/2/42 47/19/42
f 29/29/43 57/28/43 47/19/43 11/20/43
f 28/30/44 58/27/44 48/24/44 12/31/44
f 1/32/45 51/25/45 50/26/45 10/33/45
f 12/31/46 48/24/46 51/25/46 1/32/46
f 41/22/47 46/16/47 47/19/47 44/2/47
f 40/23/48 49/15/48 46/16/48 41/22/48
f 9/18/49 49/15/49 58/27/49 28/30/49
f 10/33/50 50/26/50 57/28/50 29/29/50
f 50/26/51 42/12/51 56/1/51 57/28/51
f 49/15/52 40/23/52 55/7/52 58/27/52
f 36/9/53 53/10/53 54/5/53 34/14/53
f 40/23/54 39/21/54 53/10/54 55/7/54
f 34/14/55 54/5/55 52/4/55 35/13/55
f 42/12/56 35/13/56 52/4/56 56/1/56
